<svg width="34" height="272" viewBox="0 0 34 272" fill="none" xmlns="http://www.w3.org/2000/svg">
<path d="M31.4136 97.263H2.6028C2.44728 97.263 2.29814 97.2012 2.18817 97.0913C2.0782 96.9814 2.01642 96.8323 2.01642 96.6768L2 72.5862C2 72.4307 2.06178 72.2816 2.17175 72.1717C2.28172 72.0618 2.43087 72 2.58638 72C2.7419 72 2.89105 72.0618 3.00102 72.1717C3.11099 72.2816 3.17277 72.4307 3.17277 72.5862L3.18919 96.0912H31.4136C31.5691 96.0912 31.7183 96.153 31.8283 96.2629C31.9382 96.3729 32 96.5219 32 96.6774C32 96.8329 31.9382 96.982 31.8283 97.0919C31.7183 97.2018 31.5691 97.263 31.4136 97.263Z" fill="#11141C"/>
<path d="M4.67186 97.2627C4.56104 97.2626 4.45252 97.2311 4.35886 97.1719C4.2652 97.1127 4.19025 97.0282 4.14269 96.9281C4.09513 96.828 4.0769 96.7166 4.09013 96.6066C4.10335 96.4966 4.14749 96.3926 4.21742 96.3067L4.3904 96.0951C5.77404 94.4069 6.62055 92.3434 6.82096 90.1702C6.98456 88.3807 7.70406 82.542 10.1047 82.542C12.3289 82.542 13.1058 87.5026 13.3369 89.6345C13.6166 92.1354 14.7381 94.4672 16.5174 96.2475L16.5321 96.2627C16.6387 96.3735 16.6975 96.5217 16.6958 96.6754C16.6942 96.8291 16.6322 96.976 16.5232 97.0844C16.4143 97.1929 16.2671 97.2542 16.1133 97.2552C15.9595 97.2562 15.8115 97.1968 15.7012 97.0898L15.6865 97.0751C13.7183 95.106 12.4778 92.5268 12.1682 89.7605C11.9688 87.8959 11.6276 86.3133 11.1801 85.1861C10.7204 84.0244 10.2888 83.7143 10.1059 83.7143C9.57814 83.7143 8.41241 85.6392 7.98904 90.2792C7.76736 92.684 6.83057 94.9674 5.29929 96.8354L5.1269 97.047C5.07184 97.1145 5.00244 97.1688 4.92373 97.2062C4.84501 97.2435 4.75898 97.2628 4.67186 97.2627ZM30.8252 97.2404C30.6809 97.2404 30.5418 97.187 30.4347 97.0904L30.4223 97.0798C28.7723 95.5951 27.725 93.6403 27.4775 91.5746C27.3163 90.2376 27.0319 89.0577 26.6771 88.2523C26.3223 87.4469 26.0028 87.243 25.8814 87.243C25.4903 87.243 24.5778 88.6644 24.2436 91.9515C24.0589 93.7628 23.2796 95.4685 21.9884 96.8917L21.8465 97.0482C21.795 97.1062 21.7325 97.1534 21.6626 97.1871C21.5927 97.2208 21.5168 97.2403 21.4393 97.2445C21.3618 97.2486 21.2843 97.2374 21.2112 97.2114C21.1381 97.1854 21.0709 97.1451 21.0134 97.093C20.956 97.0408 20.9095 96.9777 20.8767 96.9075C20.8438 96.8372 20.8252 96.7611 20.8219 96.6836C20.8187 96.6061 20.8309 96.5288 20.8578 96.456C20.8847 96.3832 20.9257 96.3166 20.9786 96.2598L21.1205 96.1039C22.2417 94.8694 22.9178 93.3929 23.0767 91.8331C23.2145 90.4809 23.8232 86.0706 25.8814 86.0706C26.6214 86.0706 27.25 86.6457 27.7502 87.7793C28.1565 88.7007 28.465 89.9645 28.6421 91.4345C28.8573 93.2182 29.7679 94.9134 31.2057 96.2076L31.2169 96.2176C31.3054 96.2968 31.3677 96.401 31.3957 96.5164C31.4236 96.6318 31.4158 96.7529 31.3734 96.8638C31.3309 96.9747 31.2557 97.0701 31.1579 97.1373C31.06 97.2046 30.944 97.2405 30.8252 97.2404Z" fill="#11141C"/>
<path d="M11.3581 97.2638C11.2546 97.2635 11.153 97.2359 11.0637 97.1836C10.9744 97.1314 10.9005 97.0565 10.8495 96.9665C10.7986 96.8765 10.7723 96.7746 10.7735 96.6711C10.7746 96.5677 10.8031 96.4664 10.8561 96.3776L11.0702 96.0188C12.8387 93.0494 13.9065 89.4826 14.1592 85.7025C14.3938 82.1914 14.8371 79.1669 15.4417 76.9553C16.1453 74.3827 17.0114 73.1318 18.0892 73.1318C19.1277 73.1318 19.9656 74.2918 20.6581 76.6769C21.2445 78.7097 21.6937 81.5203 21.9534 84.8051C22.2947 89.118 23.7278 93.203 25.9895 96.3061L26.0071 96.3313C26.0551 96.3933 26.0901 96.4643 26.1101 96.5401C26.1301 96.6158 26.1347 96.6949 26.1236 96.7724C26.1125 96.85 26.086 96.9246 26.0456 96.9918C26.0052 97.0589 25.9517 97.1173 25.8883 97.1635C25.825 97.2096 25.753 97.2426 25.6766 97.2604C25.6003 97.2783 25.5211 97.2806 25.4439 97.2673C25.3666 97.2541 25.2928 97.2255 25.2267 97.1832C25.1607 97.1409 25.1039 97.0858 25.0595 97.0212L25.0413 96.9966C22.6542 93.7205 21.1425 89.4234 20.7842 84.8971C20.5309 81.6903 20.0975 78.9606 19.5311 77.0028C18.76 74.3352 18.0956 74.3065 18.0892 74.3065C17.8927 74.3065 17.2372 74.8387 16.5728 77.2672C15.997 79.3738 15.5548 82.3978 15.3291 85.7828C15.0646 89.7452 13.9405 93.4925 12.0776 96.6197L11.8641 96.9784C11.8119 97.0658 11.7377 97.1381 11.649 97.1882C11.5602 97.2382 11.46 97.2643 11.3581 97.2638Z" fill="#11141C"/>
<path d="M31.4136 238.263H2.6028C2.44728 238.263 2.29814 238.201 2.18817 238.091C2.0782 237.981 2.01642 237.832 2.01642 237.677L2 213.586C2 213.431 2.06178 213.282 2.17175 213.172C2.28172 213.062 2.43087 213 2.58638 213C2.7419 213 2.89105 213.062 3.00102 213.172C3.11099 213.282 3.17277 213.431 3.17277 213.586L3.18919 237.091H31.4136C31.5691 237.091 31.7183 237.153 31.8283 237.263C31.9382 237.373 32 237.522 32 237.677C32 237.833 31.9382 237.982 31.8283 238.092C31.7183 238.202 31.5691 238.263 31.4136 238.263Z" fill="white"/>
<path d="M4.67186 238.263C4.56104 238.263 4.45252 238.231 4.35886 238.172C4.2652 238.113 4.19025 238.028 4.14269 237.928C4.09513 237.828 4.0769 237.717 4.09013 237.607C4.10335 237.497 4.14749 237.393 4.21742 237.307L4.3904 237.095C5.77404 235.407 6.62055 233.343 6.82096 231.17C6.98456 229.381 7.70406 223.542 10.1047 223.542C12.3289 223.542 13.1058 228.503 13.3369 230.634C13.6166 233.135 14.7381 235.467 16.5174 237.247L16.5321 237.263C16.6387 237.373 16.6975 237.522 16.6958 237.675C16.6942 237.829 16.6322 237.976 16.5232 238.084C16.4143 238.193 16.2671 238.254 16.1133 238.255C15.9595 238.256 15.8115 238.197 15.7012 238.09L15.6865 238.075C13.7183 236.106 12.4778 233.527 12.1682 230.76C11.9688 228.896 11.6276 227.313 11.1801 226.186C10.7204 225.024 10.2888 224.714 10.1059 224.714C9.57814 224.714 8.41241 226.639 7.98904 231.279C7.76736 233.684 6.83057 235.967 5.29929 237.835L5.1269 238.047C5.07184 238.114 5.00244 238.169 4.92373 238.206C4.84501 238.243 4.75898 238.263 4.67186 238.263ZM30.8252 238.24C30.6809 238.24 30.5418 238.187 30.4347 238.09L30.4223 238.08C28.7723 236.595 27.725 234.64 27.4775 232.575C27.3163 231.238 27.0319 230.058 26.6771 229.252C26.3223 228.447 26.0028 228.243 25.8814 228.243C25.4903 228.243 24.5778 229.664 24.2436 232.952C24.0589 234.763 23.2796 236.468 21.9884 237.892L21.8465 238.048C21.795 238.106 21.7325 238.153 21.6626 238.187C21.5927 238.221 21.5168 238.24 21.4393 238.244C21.3618 238.249 21.2843 238.237 21.2112 238.211C21.1381 238.185 21.0709 238.145 21.0134 238.093C20.956 238.041 20.9095 237.978 20.8767 237.907C20.8438 237.837 20.8252 237.761 20.8219 237.684C20.8187 237.606 20.8309 237.529 20.8578 237.456C20.8847 237.383 20.9257 237.317 20.9786 237.26L21.1205 237.104C22.2417 235.869 22.9178 234.393 23.0767 232.833C23.2145 231.481 23.8232 227.071 25.8814 227.071C26.6214 227.071 27.25 227.646 27.7502 228.779C28.1565 229.701 28.465 230.964 28.6421 232.435C28.8573 234.218 29.7679 235.913 31.2057 237.208L31.2169 237.218C31.3054 237.297 31.3677 237.401 31.3957 237.516C31.4236 237.632 31.4158 237.753 31.3734 237.864C31.3309 237.975 31.2557 238.07 31.1579 238.137C31.06 238.205 30.944 238.241 30.8252 238.24Z" fill="white"/>
<path d="M11.3581 238.264C11.2546 238.264 11.153 238.236 11.0637 238.184C10.9744 238.131 10.9005 238.056 10.8495 237.966C10.7986 237.876 10.7723 237.775 10.7735 237.671C10.7746 237.568 10.8031 237.466 10.8561 237.378L11.0702 237.019C12.8387 234.049 13.9065 230.483 14.1592 226.703C14.3938 223.191 14.8371 220.167 15.4417 217.955C16.1453 215.383 17.0114 214.132 18.0892 214.132C19.1277 214.132 19.9656 215.292 20.6581 217.677C21.2445 219.71 21.6937 222.52 21.9534 225.805C22.2947 230.118 23.7278 234.203 25.9895 237.306L26.0071 237.331C26.0551 237.393 26.0901 237.464 26.1101 237.54C26.1301 237.616 26.1347 237.695 26.1236 237.772C26.1125 237.85 26.086 237.925 26.0456 237.992C26.0052 238.059 25.9517 238.117 25.8883 238.163C25.825 238.21 25.753 238.243 25.6766 238.26C25.6003 238.278 25.5211 238.281 25.4439 238.267C25.3666 238.254 25.2928 238.225 25.2267 238.183C25.1607 238.141 25.1039 238.086 25.0595 238.021L25.0413 237.997C22.6542 234.721 21.1425 230.423 20.7842 225.897C20.5309 222.69 20.0975 219.961 19.5311 218.003C18.76 215.335 18.0956 215.306 18.0892 215.306C17.8927 215.306 17.2372 215.839 16.5728 218.267C15.997 220.374 15.5548 223.398 15.3291 226.783C15.0646 230.745 13.9405 234.493 12.0776 237.62L11.8641 237.978C11.8119 238.066 11.7377 238.138 11.649 238.188C11.5602 238.238 11.46 238.264 11.3581 238.264Z" fill="white"/>
<rect x="2.69979" y="44.1549" width="9.50952" height="17.6913" rx="3.49895" stroke="#11141C" stroke-width="1.39958"/>
<rect x="12.2467" y="38.6998" width="9.50952" height="23.1459" rx="3.49895" stroke="#11141C" stroke-width="1.39958"/>
<rect x="21.7935" y="50.9723" width="9.50952" height="10.8732" rx="3.49895" stroke="#11141C" stroke-width="1.39958"/>
<rect x="2.69979" y="185.155" width="9.50952" height="17.6913" rx="3.49895" stroke="white" stroke-width="1.39958"/>
<rect x="12.2467" y="179.7" width="9.50952" height="23.1459" rx="3.49895" stroke="white" stroke-width="1.39958"/>
<rect x="21.7935" y="191.972" width="9.50952" height="10.8732" rx="3.49895" stroke="white" stroke-width="1.39958"/>
<path d="M28.2501 2.9H23.7502V0.725C23.7502 0.324622 23.4144 0 23.0002 0C22.586 0 22.2502 0.324622 22.2502 0.725V2.9H11.7505V0.725C11.7505 0.324622 11.4147 0 11.0005 0C10.5863 0 10.2505 0.324622 10.2505 0.725V2.9H5.74991C3.67977 2.90212 2.0022 4.52382 2 6.525V25.375C2.0022 27.3762 3.67977 28.9979 5.74991 29H28.2501C30.3203 28.9981 31.9981 27.3763 32 25.375V6.525C31.9981 4.52373 30.3203 2.90186 28.2501 2.9ZM30.5 25.375C30.4987 26.5757 29.4922 27.5487 28.2501 27.55H5.74991C4.50784 27.5487 3.50134 26.5757 3.49996 25.375V13.05H30.5V25.375ZM30.5 11.6H3.49996V6.525C3.50134 5.32431 4.50784 4.35133 5.74991 4.35H10.2505V6.525C10.2508 6.92511 10.5865 7.25027 11.0005 7.25C11.4144 7.24973 11.7508 6.9252 11.7505 6.525V4.35H22.2502V6.525C22.2505 6.92511 22.5862 7.25027 23.0002 7.25C23.4141 7.24973 23.7505 6.9252 23.7502 6.525V4.35H28.2501C29.4922 4.35133 30.4987 5.32431 30.5 6.525V11.6Z" fill="#11141C"/>
<path d="M28.2501 143.9H23.7502V141.725C23.7502 141.325 23.4144 141 23.0002 141C22.586 141 22.2502 141.325 22.2502 141.725V143.9H11.7505V141.725C11.7505 141.325 11.4147 141 11.0005 141C10.5863 141 10.2505 141.325 10.2505 141.725V143.9H5.74991C3.67977 143.902 2.0022 145.524 2 147.525V166.375C2.0022 168.376 3.67977 169.998 5.74991 170H28.2501C30.3203 169.998 31.9981 168.376 32 166.375V147.525C31.9981 145.524 30.3203 143.902 28.2501 143.9ZM30.5 166.375C30.4987 167.576 29.4922 168.549 28.2501 168.55H5.74991C4.50784 168.549 3.50134 167.576 3.49996 166.375V154.05H30.5V166.375ZM30.5 152.6H3.49996V147.525C3.50134 146.324 4.50784 145.351 5.74991 145.35H10.2505V147.525C10.2508 147.925 10.5865 148.25 11.0005 148.25C11.4144 148.25 11.7508 147.925 11.7505 147.525V145.35H22.2502V147.525C22.2505 147.925 22.5862 148.25 23.0002 148.25C23.4141 148.25 23.7505 147.925 23.7502 147.525V145.35H28.2501C29.4922 145.351 30.4987 146.324 30.5 147.525V152.6Z" fill="white"/>
<path d="M33.6593 119.483C33.1414 117.268 31.9062 116.775 30.9605 116.749C30.6663 116.731 30.3786 116.654 30.1145 116.522C29.8504 116.39 29.6152 116.206 29.423 115.981C29.1495 115.692 28.9487 115.342 28.8375 114.959C29.3413 114.503 29.7406 113.942 30.0078 113.314C30.275 112.687 30.4036 112.009 30.3848 111.326C30.3848 109.309 29.9988 107 26.9815 107C23.5719 107 23.5719 109.196 23.5719 111.33C23.5531 112.012 23.6817 112.69 23.9489 113.318C24.216 113.945 24.6153 114.506 25.1191 114.962C25.0076 115.345 24.8068 115.695 24.5337 115.984C24.341 116.208 24.1062 116.39 23.8428 116.522C23.5793 116.653 23.2926 116.731 22.9993 116.749C22.0536 116.772 20.8184 117.265 20.2973 119.48C20.2973 119.512 20.2973 119.551 20.2748 119.587L20.2587 119.571C19.8297 119.126 19.5275 118.572 19.3838 117.969C20.7219 116.915 21.5422 115.05 21.5422 113C21.5422 110.285 21.0275 107.162 17.0099 107.162C12.4777 107.162 12.4777 110.126 12.4777 113C12.4777 115.043 13.2979 116.915 14.636 117.969C14.4943 118.579 14.1908 119.14 13.7579 119.59C13.7579 119.555 13.7579 119.519 13.7354 119.483C13.2143 117.268 11.9759 116.775 11.0334 116.752C10.7371 116.736 10.4472 116.659 10.1808 116.527C9.91449 116.395 9.67718 116.21 9.48295 115.984C9.20958 115.695 9.00882 115.345 8.89752 114.962C9.40129 114.506 9.8006 113.945 10.0678 113.318C10.3349 112.69 10.4636 112.012 10.4447 111.33C10.448 109.196 10.448 107 7.0383 107C4.02108 107 3.63187 109.322 3.63187 111.343C3.61303 112.025 3.74165 112.703 4.00883 113.331C4.276 113.958 4.67531 114.519 5.17907 114.975C5.06802 115.359 4.86726 115.71 4.59364 116C4.40147 116.224 4.16672 116.408 3.90321 116.539C3.6397 116.671 3.35276 116.747 3.0593 116.765C2.11361 116.788 0.875195 117.281 0.36053 119.499C0.345957 119.562 0.343674 119.626 0.353811 119.689C0.363948 119.752 0.386307 119.813 0.419611 119.867C0.452916 119.921 0.496513 119.969 0.547915 120.006C0.599316 120.043 0.657514 120.07 0.719187 120.085C0.78086 120.1 0.844799 120.102 0.907355 120.092C0.96991 120.081 1.02986 120.059 1.08377 120.025C1.13768 119.992 1.18451 119.948 1.22158 119.896C1.25864 119.844 1.28522 119.785 1.29979 119.723C1.75656 117.777 2.75372 117.748 3.08503 117.742C3.50833 117.723 3.92343 117.618 4.30501 117.432C4.6866 117.246 5.02668 116.984 5.30452 116.662C5.61661 116.323 5.8622 115.928 6.02827 115.497L6.16337 115.543L6.2277 115.565C6.34475 115.601 6.46403 115.63 6.58475 115.65H6.66839C6.78452 115.667 6.90163 115.677 7.019 115.679H7.0576C7.17819 115.677 7.29854 115.667 7.41787 115.65H7.48863C7.61378 115.629 7.73738 115.6 7.85855 115.562H7.9068L8.05155 115.514C8.2177 115.943 8.4633 116.337 8.77529 116.675C9.05383 116.997 9.39443 117.26 9.77649 117.446C10.1585 117.632 10.5741 117.738 10.998 117.758C11.3197 117.758 12.3265 117.79 12.7865 119.739C12.8283 119.915 12.8637 120.103 12.899 120.31L12.8283 120.33L12.6867 120.404C12.6063 120.443 12.5259 120.479 12.4455 120.508L12.304 120.56C12.2171 120.589 12.127 120.612 12.0402 120.631L11.9147 120.661C11.7829 120.683 11.6496 120.696 11.5159 120.699H11.3004H11.2328L11.0784 120.719H10.9916L10.85 120.745L10.7503 120.771L10.6216 120.806L10.5123 120.842L10.39 120.884L10.271 120.933L10.1585 120.985L10.033 121.05L9.92685 121.108L9.79819 121.189L9.70169 121.254L9.56981 121.355L9.47974 121.429L9.34464 121.552L9.26101 121.634L9.12912 121.776L9.05192 121.867L8.92326 122.032L8.84928 122.133C8.80746 122.195 8.76564 122.256 8.72383 122.321L8.65628 122.438C8.61768 122.506 8.57908 122.574 8.54048 122.645L8.47293 122.782C8.43754 122.853 8.40216 122.928 8.36999 123.005C8.33783 123.083 8.32496 123.116 8.30244 123.174C8.27993 123.232 8.24133 123.323 8.2156 123.404L8.19629 123.453H0.962044C0.952028 122.686 1.2128 120.531 1.2871 119.768C1.29365 119.704 1.28765 119.639 1.26945 119.578C1.25126 119.516 1.22121 119.459 1.18104 119.409C1.14086 119.359 1.09135 119.318 1.03531 119.287C0.979278 119.257 0.917825 119.238 0.854462 119.231C0.7911 119.224 0.727069 119.231 0.666024 119.249C0.604979 119.267 0.548116 119.298 0.498682 119.338C0.449248 119.379 0.408212 119.428 0.377915 119.485C0.347618 119.541 0.328654 119.603 0.322107 119.667C0.225813 120.637 -0.032838 123.001 0.00348193 123.975C0.00927595 124.1 0.062657 124.218 0.152523 124.305C0.242388 124.391 0.361821 124.439 0.48598 124.439H7.9068C7.30207 127.144 7.45003 130.384 7.45646 130.52C7.45816 130.648 7.50974 130.77 7.60004 130.86C7.69034 130.95 7.8121 131 7.93896 131H26.0809C26.205 131 26.3245 130.952 26.4143 130.866C26.5042 130.779 26.5576 130.661 26.5634 130.536C26.5634 130.397 26.7178 127.163 26.113 124.455H32.9688C33.0968 124.455 33.2195 124.404 33.31 124.313C33.4005 124.221 33.4513 124.098 33.4513 123.969C33.4513 123.84 33.4005 123.716 33.31 123.625C33.2195 123.533 33.0968 123.482 32.9688 123.482H25.8396L25.8171 123.427C25.7946 123.362 25.7689 123.304 25.7463 123.242C25.7238 123.181 25.6884 123.093 25.6563 123.022C25.6241 122.95 25.6048 122.908 25.5759 122.85C25.5469 122.791 25.5115 122.717 25.4794 122.655L25.3925 122.499C25.3604 122.441 25.325 122.383 25.2928 122.328L25.1995 122.188L25.0934 122.039L24.9969 121.916L24.8843 121.783L24.7814 121.672L24.6656 121.559L24.5626 121.465L24.4436 121.368L24.3375 121.286L24.2152 121.202L24.1091 121.134L23.9804 121.063L23.8743 121.008L23.7488 120.946L23.6459 120.904L23.5108 120.855L23.4111 120.823L23.2727 120.787L23.1795 120.764L23.0347 120.738H22.9543L22.7999 120.719H22.7356H22.52C22.3874 120.716 22.2552 120.703 22.1244 120.68L21.9957 120.622C21.9057 120.602 21.8188 120.579 21.732 120.55L21.5904 120.498C21.51 120.466 21.4264 120.43 21.346 120.391L21.1916 120.33L21.1079 120.278C21.1433 120.074 21.1787 119.885 21.2205 119.71C21.6805 117.764 22.6809 117.735 23.009 117.725C23.4321 117.706 23.847 117.6 24.2285 117.415C24.6099 117.229 24.9501 116.967 25.2285 116.645C25.5405 116.307 25.7861 115.912 25.9522 115.481L26.097 115.53H26.142C26.2632 115.567 26.3868 115.597 26.5119 115.617H26.5827C26.702 115.635 26.8224 115.645 26.9429 115.646H26.9815C27.0989 115.644 27.216 115.635 27.3322 115.617H27.4158C27.5365 115.597 27.6558 115.569 27.7728 115.533L27.8372 115.51L27.9723 115.465C28.1383 115.895 28.3839 116.289 28.696 116.626C28.9739 116.949 29.3144 117.212 29.6966 117.399C30.0788 117.585 30.4946 117.691 30.9187 117.709C31.2404 117.709 32.2472 117.742 32.704 119.694C32.9502 120.94 33.0581 122.209 33.0256 123.479H31.9095C31.7815 123.479 31.6588 123.53 31.5683 123.621C31.4778 123.713 31.427 123.836 31.427 123.965C31.427 124.094 31.4778 124.218 31.5683 124.309C31.6588 124.401 31.7815 124.452 31.9095 124.452H33.4953C33.6194 124.452 33.7389 124.404 33.8287 124.318C33.9186 124.231 33.972 124.113 33.9778 123.988C34.0508 122.479 33.9439 120.967 33.6593 119.483ZM4.60008 111.33C4.60008 108.875 5.26271 107.973 7.0383 107.973C9.38002 107.973 9.47974 109.004 9.47974 111.343C9.47974 112.64 8.95542 113.785 8.11588 114.362C7.81875 114.573 7.46684 114.691 7.10376 114.702C6.74068 114.713 6.38239 114.616 6.0733 114.424C6.03792 114.401 6.00254 114.385 5.96715 114.362C5.10831 113.772 4.60008 112.617 4.60008 111.33ZM13.4427 113C13.4427 109.974 13.4427 108.135 17.0099 108.135C19.9692 108.135 20.5772 110.081 20.5772 113C20.5772 114.842 19.8213 116.506 18.6022 117.339C18.2553 117.584 17.8576 117.745 17.4395 117.811C17.0214 117.877 16.5939 117.845 16.1897 117.719C16.054 117.676 15.9218 117.623 15.794 117.56C15.658 117.498 15.5268 117.425 15.4016 117.343C14.1986 116.506 13.4427 114.845 13.4427 113.003V113ZM25.6112 130.027H8.40859C8.35914 128.191 8.51561 126.356 8.87501 124.556C8.91039 124.406 8.94578 124.257 8.99402 124.108C9.47009 122.486 10.3 121.692 11.5255 121.659C11.6199 121.659 11.7153 121.654 11.8118 121.643C12.495 121.568 13.1469 121.314 13.7032 120.907C14.5341 120.309 15.1611 119.466 15.4981 118.494L15.5463 118.514C15.6461 118.556 15.7426 118.595 15.8455 118.63H15.8712C16.6093 118.878 17.4073 118.878 18.1454 118.63H18.1711C18.2708 118.595 18.3706 118.556 18.4703 118.514L18.5185 118.494C18.8549 119.467 19.482 120.311 20.3134 120.91C20.4771 121.031 20.6491 121.139 20.8281 121.235C21.3421 121.507 21.9109 121.656 22.4911 121.672C23.7166 121.705 24.5465 122.506 25.0258 124.131C25.0709 124.274 25.1062 124.419 25.1416 124.565C25.5012 126.362 25.6588 128.194 25.6112 130.027ZM24.5369 111.33C24.5369 108.995 24.6366 107.973 26.9815 107.973C28.7604 107.973 29.423 108.888 29.423 111.343C29.423 112.64 28.8987 113.785 28.0559 114.362C28.0173 114.388 27.9755 114.408 27.9369 114.43C27.7129 114.567 27.4626 114.655 27.2026 114.687C26.9425 114.72 26.6786 114.696 26.4283 114.618C26.3368 114.589 26.2475 114.554 26.1613 114.511C26.0731 114.468 25.9882 114.418 25.9072 114.362C25.0516 113.772 24.5369 112.614 24.5369 111.33Z" fill="#11141C"/>
<path d="M33.6593 260.483C33.1414 258.268 31.9062 257.775 30.9605 257.749C30.6663 257.731 30.3786 257.654 30.1145 257.522C29.8504 257.39 29.6152 257.206 29.423 256.981C29.1495 256.692 28.9487 256.342 28.8375 255.959C29.3413 255.503 29.7406 254.942 30.0078 254.314C30.275 253.687 30.4036 253.009 30.3848 252.326C30.3848 250.309 29.9988 248 26.9815 248C23.5719 248 23.5719 250.196 23.5719 252.33C23.5531 253.012 23.6817 253.69 23.9489 254.318C24.216 254.945 24.6153 255.506 25.1191 255.962C25.0076 256.345 24.8068 256.695 24.5337 256.984C24.341 257.208 24.1062 257.39 23.8428 257.522C23.5793 257.653 23.2926 257.731 22.9993 257.749C22.0536 257.772 20.8184 258.265 20.2973 260.48C20.2973 260.512 20.2973 260.551 20.2748 260.587L20.2587 260.571C19.8297 260.126 19.5275 259.572 19.3838 258.969C20.7219 257.915 21.5422 256.05 21.5422 254C21.5422 251.285 21.0275 248.162 17.0099 248.162C12.4777 248.162 12.4777 251.126 12.4777 254C12.4777 256.043 13.2979 257.915 14.636 258.969C14.4943 259.579 14.1908 260.14 13.7579 260.59C13.7579 260.555 13.7579 260.519 13.7354 260.483C13.2143 258.268 11.9759 257.775 11.0334 257.752C10.7371 257.736 10.4472 257.659 10.1808 257.527C9.91449 257.395 9.67718 257.21 9.48295 256.984C9.20958 256.695 9.00882 256.345 8.89752 255.962C9.40129 255.506 9.8006 254.945 10.0678 254.318C10.3349 253.69 10.4636 253.012 10.4447 252.33C10.448 250.196 10.448 248 7.0383 248C4.02108 248 3.63187 250.322 3.63187 252.343C3.61303 253.025 3.74165 253.703 4.00883 254.331C4.276 254.958 4.67531 255.519 5.17907 255.975C5.06802 256.359 4.86726 256.71 4.59364 257C4.40147 257.224 4.16672 257.408 3.90321 257.539C3.6397 257.671 3.35276 257.747 3.0593 257.765C2.11361 257.788 0.875195 258.281 0.36053 260.499C0.345957 260.562 0.343674 260.626 0.353811 260.689C0.363948 260.752 0.386307 260.813 0.419611 260.867C0.452916 260.921 0.496513 260.969 0.547914 261.006C0.599316 261.043 0.657514 261.07 0.719187 261.085C0.78086 261.1 0.844799 261.102 0.907355 261.092C0.96991 261.081 1.02986 261.059 1.08377 261.025C1.13768 260.992 1.18451 260.948 1.22158 260.896C1.25864 260.844 1.28522 260.785 1.29979 260.723C1.75656 258.777 2.75372 258.748 3.08503 258.742C3.50833 258.723 3.92343 258.618 4.30501 258.432C4.6866 258.246 5.02668 257.984 5.30452 257.662C5.61661 257.323 5.8622 256.928 6.02827 256.497L6.16337 256.543L6.2277 256.565C6.34475 256.601 6.46403 256.63 6.58475 256.65H6.66839C6.78452 256.667 6.90163 256.677 7.019 256.679H7.0576C7.17819 256.677 7.29854 256.667 7.41787 256.65H7.48863C7.61378 256.629 7.73738 256.6 7.85855 256.562H7.9068L8.05155 256.514C8.2177 256.943 8.4633 257.337 8.77529 257.675C9.05383 257.997 9.39443 258.26 9.77649 258.446C10.1585 258.632 10.5741 258.738 10.998 258.758C11.3197 258.758 12.3265 258.79 12.7865 260.739C12.8283 260.915 12.8637 261.103 12.899 261.31L12.8283 261.33L12.6867 261.404C12.6063 261.443 12.5259 261.479 12.4455 261.508L12.304 261.56C12.2171 261.589 12.127 261.612 12.0402 261.631L11.9147 261.661C11.7829 261.683 11.6496 261.696 11.5159 261.699H11.3004H11.2328L11.0784 261.719H10.9916L10.85 261.745L10.7503 261.771L10.6216 261.806L10.5123 261.842L10.3901 261.884L10.271 261.933L10.1585 261.985L10.033 262.05L9.92685 262.108L9.79819 262.189L9.70169 262.254L9.5698 262.355L9.47974 262.429L9.34464 262.552L9.26101 262.634L9.12912 262.776L9.05192 262.867L8.92326 263.032L8.84928 263.133C8.80746 263.195 8.76564 263.256 8.72383 263.321L8.65628 263.438C8.61768 263.506 8.57908 263.574 8.54048 263.645L8.47293 263.782C8.43754 263.853 8.40216 263.928 8.36999 264.005C8.33783 264.083 8.32496 264.116 8.30244 264.174C8.27993 264.232 8.24133 264.323 8.2156 264.404L8.19629 264.453H0.962044C0.952028 263.686 1.2128 261.531 1.2871 260.768C1.29365 260.704 1.28765 260.639 1.26945 260.578C1.25126 260.516 1.22121 260.459 1.18104 260.409C1.14086 260.359 1.09135 260.318 1.03531 260.287C0.979278 260.257 0.917825 260.238 0.854462 260.231C0.7911 260.224 0.727069 260.231 0.666024 260.249C0.604979 260.267 0.548116 260.298 0.498682 260.338C0.449248 260.379 0.408212 260.428 0.377915 260.485C0.347618 260.541 0.328654 260.603 0.322107 260.667C0.225813 261.637 -0.032838 264.001 0.00348193 264.975C0.00927595 265.1 0.062657 265.218 0.152523 265.305C0.242388 265.391 0.361821 265.439 0.48598 265.439H7.9068C7.30207 268.144 7.45003 271.384 7.45646 271.52C7.45816 271.648 7.50974 271.77 7.60004 271.86C7.69034 271.95 7.8121 272 7.93896 272H26.0809C26.205 272 26.3245 271.952 26.4143 271.866C26.5042 271.779 26.5576 271.661 26.5634 271.536C26.5634 271.397 26.7178 268.163 26.113 265.455H32.9688C33.0968 265.455 33.2195 265.404 33.31 265.313C33.4005 265.221 33.4513 265.098 33.4513 264.969C33.4513 264.84 33.4005 264.716 33.31 264.625C33.2195 264.533 33.0968 264.482 32.9688 264.482H25.8396L25.8171 264.427C25.7946 264.362 25.7689 264.304 25.7463 264.242C25.7238 264.181 25.6884 264.093 25.6563 264.022C25.6241 263.95 25.6048 263.908 25.5759 263.85C25.5469 263.791 25.5115 263.717 25.4794 263.655L25.3925 263.499C25.3604 263.441 25.325 263.383 25.2928 263.328L25.1995 263.188L25.0934 263.039L24.9969 262.916L24.8843 262.783L24.7814 262.672L24.6656 262.559L24.5626 262.465L24.4436 262.368L24.3375 262.286L24.2152 262.202L24.1091 262.134L23.9804 262.063L23.8743 262.008L23.7488 261.946L23.6459 261.904L23.5108 261.855L23.4111 261.823L23.2727 261.787L23.1795 261.764L23.0347 261.738H22.9543L22.7999 261.719H22.7356H22.52C22.3874 261.716 22.2552 261.703 22.1244 261.68L21.9957 261.622C21.9057 261.602 21.8188 261.579 21.732 261.55L21.5904 261.498C21.51 261.466 21.4264 261.43 21.346 261.391L21.1916 261.33L21.1079 261.278C21.1433 261.074 21.1787 260.885 21.2205 260.71C21.6805 258.764 22.6809 258.735 23.009 258.725C23.4321 258.706 23.847 258.6 24.2285 258.415C24.6099 258.229 24.9501 257.967 25.2285 257.645C25.5405 257.307 25.7861 256.912 25.9522 256.481L26.097 256.53H26.142C26.2632 256.567 26.3868 256.597 26.5119 256.617H26.5827C26.702 256.635 26.8224 256.645 26.9429 256.646H26.9815C27.0989 256.644 27.216 256.635 27.3322 256.617H27.4158C27.5365 256.597 27.6558 256.569 27.7728 256.533L27.8372 256.51L27.9723 256.465C28.1383 256.895 28.3839 257.289 28.696 257.626C28.9739 257.949 29.3144 258.212 29.6966 258.399C30.0788 258.585 30.4946 258.691 30.9187 258.709C31.2404 258.709 32.2472 258.742 32.704 260.694C32.9502 261.94 33.0581 263.209 33.0256 264.479H31.9095C31.7815 264.479 31.6588 264.53 31.5683 264.621C31.4778 264.713 31.427 264.836 31.427 264.965C31.427 265.094 31.4778 265.218 31.5683 265.309C31.6588 265.401 31.7815 265.452 31.9095 265.452H33.4953C33.6194 265.452 33.7389 265.404 33.8287 265.318C33.9186 265.231 33.972 265.113 33.9778 264.988C34.0508 263.479 33.9439 261.967 33.6593 260.483ZM4.60008 252.33C4.60008 249.875 5.26271 248.973 7.0383 248.973C9.38002 248.973 9.47974 250.004 9.47974 252.343C9.47974 253.64 8.95542 254.785 8.11588 255.362C7.81875 255.573 7.46684 255.691 7.10376 255.702C6.74068 255.713 6.38239 255.616 6.0733 255.424C6.03792 255.401 6.00254 255.385 5.96716 255.362C5.10831 254.772 4.60008 253.617 4.60008 252.33ZM13.4427 254C13.4427 250.974 13.4427 249.135 17.0099 249.135C19.9692 249.135 20.5772 251.081 20.5772 254C20.5772 255.842 19.8213 257.506 18.6022 258.339C18.2553 258.584 17.8576 258.745 17.4395 258.811C17.0214 258.877 16.5939 258.845 16.1897 258.719C16.054 258.676 15.9218 258.623 15.794 258.56C15.658 258.498 15.5268 258.425 15.4016 258.343C14.1986 257.506 13.4427 255.845 13.4427 254.003V254ZM25.6112 271.027H8.40859C8.35914 269.191 8.51561 267.356 8.87501 265.556C8.91039 265.406 8.94577 265.257 8.99402 265.108C9.47009 263.486 10.3 262.692 11.5255 262.659C11.6199 262.659 11.7153 262.654 11.8118 262.643C12.495 262.568 13.1469 262.314 13.7032 261.907C14.5341 261.309 15.1611 260.466 15.4981 259.494L15.5463 259.514C15.6461 259.556 15.7426 259.595 15.8455 259.63H15.8712C16.6093 259.878 17.4073 259.878 18.1454 259.63H18.1711C18.2708 259.595 18.3706 259.556 18.4703 259.514L18.5185 259.494C18.8549 260.467 19.482 261.311 20.3134 261.91C20.4771 262.031 20.6491 262.139 20.8281 262.235C21.3421 262.507 21.9109 262.656 22.4911 262.672C23.7166 262.705 24.5465 263.506 25.0258 265.131C25.0709 265.274 25.1062 265.419 25.1416 265.565C25.5012 267.362 25.6588 269.194 25.6112 271.027ZM24.5369 252.33C24.5369 249.995 24.6366 248.973 26.9815 248.973C28.7604 248.973 29.423 249.888 29.423 252.343C29.423 253.64 28.8987 254.785 28.0559 255.362C28.0173 255.388 27.9755 255.408 27.9369 255.43C27.7129 255.567 27.4626 255.655 27.2026 255.687C26.9425 255.72 26.6786 255.696 26.4283 255.618C26.3368 255.589 26.2475 255.554 26.1613 255.511C26.0731 255.468 25.9882 255.418 25.9072 255.362C25.0516 254.772 24.5369 253.614 24.5369 252.33Z" fill="white"/>
</svg>
